<svg width="25" height="25" viewBox="0 0 25 25" fill="none" xmlns="http://www.w3.org/2000/svg">
<path d="M3.857 0.000585401C3.42638 0.0136079 3.04809 0.240853 2.73145 0.557462L2.20316 1.08488L7.92852 6.91434L8.75964 6.08325C9.26054 5.58239 9.26052 4.75538 8.75964 4.2545L5.06164 0.557462C4.70346 0.199279 4.28761 -0.0126487 3.857 0.000585401ZM1.59244 1.69392L0.985916 2.29957C-0.00654562 3.29198 1.10997e-06 4.59052 1.10997e-06 5.18992C1.10997e-06 7.67007 0.991567 11.9579 7.01663 17.9828C13.0417 24.0076 17.3305 25 19.8108 25C20.4102 25 21.7088 25.0065 22.7012 24.0141L23.2497 23.4656L17.5243 17.6362L16.9237 18.2377C16.5678 18.5936 16.3051 18.6361 16.0497 18.6061C15.7943 18.5761 15.5302 18.4283 15.3372 18.2788C14.2843 17.4637 12.5796 16.297 10.6415 14.3589C8.70328 12.4208 7.5365 10.7153 6.72136 9.66251C6.57193 9.46944 6.42416 9.20878 6.39413 8.95337C6.36402 8.69797 6.41025 8.43199 6.76595 8.07603L7.31863 7.52338L1.59244 1.69392ZM19.831 15.8646C19.4992 15.8646 19.1678 15.9901 18.9174 16.2407L18.1334 17.0255L23.8596 22.8558L24.4434 22.272C24.76 21.9554 24.9862 21.5737 24.9994 21.1431C25.0125 20.7125 24.8016 20.2967 24.4434 19.9385L20.7454 16.2407C20.4949 15.9902 20.1627 15.8646 19.831 15.8646Z" fill="white"/>
</svg>
